<svg xmlns="http://www.w3.org/2000/svg" width="512" height="514" fill="none"><g filter="url(#a)"><rect width="512" height="469" fill="#FFAB40" rx="33"/><rect width="497" height="454" x="7.5" y="7.5" stroke="#985909" stroke-width="15" rx="25.5"/></g><g filter="url(#b)"><mask id="c" width="397" height="258" x="39" y="72" fill="#000" maskUnits="userSpaceOnUse"><path fill="#fff" d="M39 72h397v258H39z"/><path d="M216.983 286v42.325H40.738V286h176.245Zm33.021-84.257v-46.125l184.5-81.243v53.07l-126.32 50.712 1.704-2.752v6.552l-1.704-2.752 126.32 50.711v53.07l-184.5-81.243Z"/></mask><path fill="#fff" d="M216.983 286v42.325H40.738V286h176.245Zm33.021-84.257v-46.125l184.5-81.243v53.07l-126.32 50.712 1.704-2.752v6.552l-1.704-2.752 126.32 50.711v53.07l-184.5-81.243Z"/><path fill="#985909" d="M216.983 286h1v-1h-1v1Zm0 42.325v1h1v-1h-1Zm-176.245 0h-1v1h1v-1Zm0-42.325v-1h-1v1h1Zm175.245 0v42.325h2V286h-2Zm1 41.325H40.738v2h176.245v-2Zm-175.245 1V286h-2v42.325h2Zm-1-41.325h176.245v-2H40.738v2Zm209.266-85.257h-1v.653l.597.262.403-.915Zm0-46.125-.403-.915-.597.263v.652h1Zm184.5-81.243h1v-1.533l-1.403.618.403.915Zm0 53.07.372.928.628-.252v-.676h-1Zm-126.32 50.712-.85-.527-1.602 2.589 2.825-1.134-.373-.928Zm1.704-2.752h1v-3.515l-1.85 2.988.85.527Zm0 6.552-.85.526 1.85 2.989v-3.515h-1Zm-1.704-2.752.373-.928-2.825-1.134 1.602 2.588.85-.526Zm126.32 50.711h1v-.676l-.628-.252-.372.928Zm0 53.07-.403.915 1.403.618v-1.533h-1Zm-183.5-81.243v-46.125h-2v46.125h2Zm-.597-45.21 184.5-81.242-.806-1.83-184.5 81.242.806 1.83Zm183.097-82.158v53.07h2v-53.07h-2Zm.627 52.142-126.319 50.712.745 1.856 126.319-50.712-.745-1.856Zm-125.096 52.166 1.703-2.752-1.7-1.053-1.704 2.752 1.701 1.053Zm-.147-3.278v6.552h2v-6.552h-2Zm1.85 6.025-1.703-2.751-1.701 1.052 1.704 2.752 1.7-1.053Zm-2.926-1.297 126.319 50.711.745-1.856-126.319-50.711-.745 1.856Zm125.692 49.783v53.07h2v-53.07h-2Zm1.403 52.155-184.5-81.243-.806 1.83 184.5 81.243.806-1.83Z" mask="url(#c)"/></g><defs><filter id="a" width="512" height="514" x="0" y="0" color-interpolation-filters="sRGB" filterUnits="userSpaceOnUse"><feFlood flood-opacity="0" result="BackgroundImageFix"/><feColorMatrix in="SourceAlpha" result="hardAlpha" values="0 0 0 0 0 0 0 0 0 0 0 0 0 0 0 0 0 0 127 0"/><feOffset dy="45"/><feComposite in2="hardAlpha" operator="out"/><feColorMatrix values="0 0 0 0 0.596078 0 0 0 0 0.34902 0 0 0 0 0.0352941 0 0 0 1 0"/><feBlend in2="BackgroundImageFix" result="effect1_dropShadow_260_14"/><feBlend in="SourceGraphic" in2="effect1_dropShadow_260_14" result="shape"/></filter><filter id="b" width="403.766" height="264.482" x="35.738" y="72.842" color-interpolation-filters="sRGB" filterUnits="userSpaceOnUse"><feFlood flood-opacity="0" result="BackgroundImageFix"/><feColorMatrix in="SourceAlpha" result="hardAlpha" values="0 0 0 0 0 0 0 0 0 0 0 0 0 0 0 0 0 0 127 0"/><feOffset dy="4"/><feGaussianBlur stdDeviation="2"/><feComposite in2="hardAlpha" operator="out"/><feColorMatrix values="0 0 0 0 0 0 0 0 0 0 0 0 0 0 0 0 0 0 0.25 0"/><feBlend in2="BackgroundImageFix" result="effect1_dropShadow_260_14"/><feBlend in="SourceGraphic" in2="effect1_dropShadow_260_14" result="shape"/></filter></defs></svg>